:FULLY-SPECIFIED
:FORCE-ALL-JOINTS-BE-3DOF
:DEGREES
34
root 5.9884 16.8879 -28.0939 9.93461 -1.7883 -2.21033
lfemur -20.3352 1.54003 -19.8416
ltibia 34.224 -0 0
lfoot -35.9513 4.23045 0.00167693
ltoes 35.9187 -0 0
rfemur -17.3956 5.26314 19.4618
rtibia 31.4971 -0 0
rfoot -27.7187 -17.2086 -0.0377621
rtoes 13.2281 -0 0
lowerback -5.02511 2.55455 -1.16616
upperback -1.92924 3.4616 0.816497
thorax 0.666832 1.73408 1.66494
lowerneck -9.56649 -1.68701 2.75886
upperneck -2.66523 -2.52169 0.646568
head 0.734209 -1.26796 -0.347519
lclavicle 1.86406e-14 1.7454e-15 -2.88246e-30
lhumerus -41.4778 -12.6475 97.1183
lradius 39.1422 -0 0
lwrist 5.76416 0 0
lhand -11.6633 4.676 0.0112578
lfingers 7.12502 -0 0
lthumb 14.3814 34.157 0.0106812
rclavicle 1.86406e-14 1.7454e-15 -2.88246e-30
rhumerus -40.7993 -5.04883 -88.6552
rradius 39.2024 -0 0
rwrist 10.7794 0 0
rhand -26.1551 -20.7152 -0.00878495
rfingers 7.12502 -0 0
rthumb 0.395902 -50.6917 -0.00842003
35
root 5.98068 16.8895 -28.0925 9.96243 -1.76604 -2.18447
lfemur -20.3342 1.51692 -19.837
ltibia 34.1724 -0 0
lfoot -35.8694 4.23934 0.00151175
ltoes 35.8267 -0 0
rfemur -17.3325 5.41597 19.4627
rtibia 31.3596 -0 0
rfoot -27.6381 -17.4119 -0.034042
rtoes 12.979 -0 0
lowerback -5.11632 2.52392 -1.04802
upperback -1.90577 3.41542 0.735164
thorax 0.759807 1.70967 1.52002
lowerneck -9.55785 -1.66642 2.78347
upperneck -2.70368 -2.49653 0.715966
head 0.721251 -1.25485 -0.328537
lclavicle 1.9707e-14 2.91871e-15 -2.59858e-30
lhumerus -41.4689 -12.7029 97.0357
lradius 39.2826 -0 0
lwrist 5.87291 0 0
lhand -11.6957 4.52508 0.0101489
lfingers 7.12502 -0 0
lthumb 14.3502 34.0084 0.00962916
rclavicle 1.9707e-14 2.91871e-15 -2.59858e-30
rhumerus -40.7241 -5.05153 -88.7881
rradius 39.1638 -0 0
rwrist 10.8062 0 0
rhand -26.2266 -20.6619 -0.00791964
rfingers 7.12502 -0 0
rthumb 0.326875 -50.6388 -0.00759067
36
root 5.97296 16.8911 -28.0912 9.99027 -1.74379 -2.1586
lfemur -20.3331 1.49381 -19.8323
ltibia 34.1208 -0 0
lfoot -35.7875 4.24823 0.00133388
ltoes 35.7347 -0 0
rfemur -17.2693 5.5688 19.4638
rtibia 31.2221 -0 0
rfoot -27.5576 -17.6153 -0.0300361
rtoes 12.7299 -0 0
lowerback -5.20759 2.49347 -0.929836
upperback -1.88224 3.36928 0.653817
thorax 0.852842 1.68549 1.37505
lowerneck -9.54919 -1.64583 2.80809
upperneck -2.74209 -2.47133 0.785344
head 0.708296 -1.24174 -0.309558
lclavicle 2.07733e-14 4.09203e-15 -2.29287e-30
lhumerus -41.4599 -12.7583 96.9531
lradius 39.423 -0 0
lwrist 5.98165 0 0
lhand -11.7281 4.37416 0.00895477
lfingers 7.12502 -0 0
lthumb 14.319 33.8598 0.00849618
rclavicle 2.07733e-14 4.09203e-15 -2.29287e-30
rhumerus -40.649 -5.05407 -88.9211
rradius 39.1252 -0 0
rwrist 10.833 0 0
rhand -26.2981 -20.6085 -0.0069878
rfingers 7.12502 -0 0
rthumb 0.25785 -50.5858 -0.00669755
37
root 5.96524 16.8926 -28.0899 10.0181 -1.72156 -2.13273
lfemur -20.332 1.4707 -19.8276
ltibia 34.0692 -0 0
lfoot -35.7056 4.25711 0.00114331
ltoes 35.6427 -0 0
rfemur -17.2061 5.72164 19.4651
rtibia 31.0846 -0 0
rfoot -27.4771 -17.8187 -0.0257443
rtoes 12.4808 -0 0
lowerback -5.29892 2.4632 -0.811604
upperback -1.85865 3.32317 0.572457
thorax 0.945937 1.66154 1.23005
lowerneck -9.54052 -1.62524 2.83271
upperneck -2.78047 -2.44608 0.854704
head 0.695346 -1.22862 -0.290581
lclavicle 2.18397e-14 5.26534e-15 -1.96531e-30
lhumerus -41.4508 -12.8136 96.8704
lradius 39.5634 -0 0
lwrist 6.0904 0 0
lhand -11.7604 4.22324 0.00767538
lfingers 7.12502 -0 0
lthumb 14.2878 33.7112 0.00728231
rclavicle 2.18397e-14 5.26534e-15 -1.96531e-30
rhumerus -40.5738 -5.05642 -89.0541
rradius 39.0866 -0 0
rwrist 10.8599 0 0
rhand -26.3695 -20.5552 -0.00598944
rfingers 7.12502 -0 0
rthumb 0.188827 -50.5329 -0.00574065
